# Blender 4.3.2
# www.blender.org
mtllib Large Island.mtl
o Large_Island
v -18.789259 -5.371226 -0.061534
v -14.785868 -1.911154 3.301735
v -20.287285 -1.579999 5.016078
v -23.585653 -1.243666 0.560886
v -20.431931 -1.563414 -3.805437
v -14.993010 -1.448040 -2.137362
v -19.161432 -4.940402 1.147646
v -17.795259 -4.748660 0.802156
v -17.381298 -2.198927 4.781190
v -14.239685 -2.215031 0.590067
v -17.785772 -4.610829 -0.635510
v -20.008322 -4.901113 -0.055406
v -22.474396 -2.009172 3.067339
v -19.166927 -4.679977 -1.151811
v -22.508320 -2.091037 -1.953967
v -17.570375 -1.794061 -3.700801
v -11.013040 -0.091004 3.466455
v -11.061183 0.115166 -1.692583
v -18.850349 0.512927 9.025977
v -14.039347 0.559544 7.409976
v -26.799614 0.439130 3.299155
v -23.755768 0.231744 7.494449
v -23.882645 -0.319873 -5.543375
v -26.848631 0.127340 -1.681190
v -14.278067 0.726524 -5.891596
v -19.165016 0.530872 -7.442327
v -9.625603 0.671519 -2.112275
v -13.144831 0.980717 8.778843
v -24.711903 0.765112 8.828608
v -28.348745 0.672928 -2.128957
v -19.161020 1.082187 -8.967106
v -9.574977 0.515206 4.000945
v -18.880062 1.038272 10.651656
v -28.311634 0.885000 3.868602
v -24.812595 0.435509 -6.885485
v -13.399414 1.294876 -7.113806
v -9.101610 1.129693 -2.287148
v -9.668016 1.837928 0.920562
v -12.831643 1.436631 9.226836
v -16.012077 2.875947 9.465501
v -25.045097 1.191741 9.293666
v -26.433189 2.223600 6.267090
v -28.881096 1.097815 -2.276159
v -26.515793 1.638850 -4.328194
v -19.156534 1.493675 -9.502881
v -16.420887 2.819435 -8.014479
v -11.782760 2.119159 6.059544
v -21.577524 2.295474 9.215581
v -27.773834 2.375271 0.816077
v -21.824865 2.002486 -7.314521
v -11.921585 2.409559 -4.318102
v -17.182171 3.203923 5.793068
v -13.487008 2.568229 0.748659
v -18.910383 2.936919 0.631881
v -23.172485 3.599937 3.743804
v -23.336218 2.459639 -2.100266
v -17.532240 3.274052 -4.374012
v -9.056244 0.977848 4.168103
v -18.891504 1.467449 11.217310
v -28.847912 1.295227 4.064302
v -25.140627 0.856839 -7.303995
v -13.066911 1.707925 -7.551024
vn 0.0764 -0.9906 -0.1136
vn 0.4167 -0.8403 0.3468
vn -0.1766 -0.8395 0.5138
vn -0.5514 -0.8335 0.0345
vn -0.1281 -0.8130 -0.5680
vn 0.4357 -0.7937 -0.4246
vn -0.1396 -0.8869 0.4403
vn 0.4376 -0.8678 0.2356
vn 0.1363 -0.8310 0.5393
vn 0.5396 -0.8390 -0.0706
vn 0.4665 -0.7941 -0.3897
vn -0.5148 -0.8528 -0.0881
vn -0.4658 -0.8390 0.2813
vn -0.0978 -0.7868 -0.6094
vn -0.4714 -0.8378 -0.2756
vn 0.2032 -0.7774 -0.5953
vn 0.3684 -0.9165 0.1559
vn 0.3740 -0.9043 -0.2056
vn 0.0155 -0.9176 0.3973
vn 0.2088 -0.9064 0.3671
vn -0.3573 -0.9271 0.1135
vn -0.2015 -0.9301 0.3072
vn -0.2148 -0.9156 -0.3400
vn -0.3788 -0.9235 -0.0605
vn 0.2403 -0.8906 -0.3861
vn 0.0560 -0.8949 -0.4428
vn 0.4727 -0.8561 -0.2088
vn 0.2714 -0.8592 0.4336
vn -0.2640 -0.8832 0.3877
vn -0.4838 -0.8654 -0.1308
vn 0.0435 -0.8522 -0.5215
vn 0.4748 -0.8616 0.1794
vn 0.0213 -0.8697 0.4932
vn -0.4570 -0.8759 0.1551
vn -0.2785 -0.8627 -0.4222
vn 0.2838 -0.8508 -0.4423
vn 0.9457 0.0259 -0.3239
vn 0.5283 0.8489 0.0173
vn 0.6241 0.0375 0.7804
vn 0.1714 0.8592 0.4820
vn -0.5641 0.0005 0.8257
vn -0.4623 0.8151 0.3491
vn -0.9435 0.0426 -0.3287
vn -0.3651 0.8777 -0.3103
vn -0.0825 0.0499 -0.9953
vn 0.1277 0.8390 -0.5289
vn 0.3905 0.9003 0.1924
vn -0.1642 0.8896 0.4262
vn -0.4551 0.8884 -0.0603
vn -0.2330 0.9091 -0.3453
vn 0.3853 0.9035 -0.1879
vn 0.0697 0.9965 0.0467
vn 0.1484 0.9888 0.0162
vn 0.0227 0.9988 -0.0434
vn -0.1056 0.9937 0.0383
vn -0.1249 0.9828 -0.1357
vn -0.0200 0.9984 -0.0530
vn 0.9464 0.0267 0.3218
vn -0.0390 0.0222 0.9990
vn -0.9520 0.0275 0.3047
vn -0.5947 0.0159 -0.8038
vn 0.6136 0.0653 -0.7869
vt 0.260335 0.747314
vt 0.275593 0.794993
vt 0.225416 0.776039
vt 0.328727 0.966972
vt 0.418427 0.877106
vt 0.224436 0.721744
vt 0.273225 0.702965
vt 0.307305 0.748614
vt 0.653786 0.641799
vt 0.611310 0.707230
vt 0.545491 0.586556
vt 0.819874 0.654357
vt 0.738276 0.634115
vt 0.830516 0.516867
vt 0.865015 0.811358
vt 0.854127 0.731172
vt 0.990580 0.770734
vt 0.727121 0.892480
vt 0.802280 0.863348
vt 0.802730 0.984049
vt 0.599530 0.789726
vt 0.653128 0.857282
vt 0.524016 0.893352
vt 0.676156 0.503231
vt 0.949013 0.619114
vt 0.933487 0.911541
vt 0.645576 0.990922
vt 0.485946 0.735252
vt 0.577419 0.313924
vt 0.646675 0.408873
vt 0.623959 0.438313
vt 0.542317 0.325316
vt 0.760831 0.436391
vt 0.868261 0.407048
vt 0.891355 0.437234
vt 0.759244 0.477593
vt 0.577841 0.192165
vt 0.543214 0.180016
vt 0.936102 0.315163
vt 0.936764 0.196514
vt 0.974250 0.184366
vt 0.973134 0.325661
vt 0.868018 0.100759
vt 0.757588 0.064337
vt 0.760171 0.025669
vt 0.891892 0.069660
vt 0.647605 0.097065
vt 0.627402 0.065219
vt 0.410989 0.628216
vt 0.473765 0.754032
vt 0.301377 0.547846
vt 0.170422 0.574941
vt 0.054968 0.636097
vt 0.044254 0.764828
vt 0.072359 0.895874
vt 0.192972 0.956129
vt 0.614137 0.450404
vt 0.527254 0.330026
vt 0.527254 0.175434
vt 0.761083 0.009284
vt 0.901718 0.056614
vt 0.759276 0.493363
vt 0.988684 0.330250
vt 0.901466 0.449762
vt 0.989919 0.179200
vt 0.617960 0.051485
vt 0.320626 0.480190
vt 0.188359 0.479847
vt 0.292975 0.393216
vt 0.485855 0.273928
vt 0.432719 0.404107
vt 0.381957 0.270400
vt 0.338363 0.056867
vt 0.434533 0.146708
vt 0.304427 0.148164
vt 0.086519 0.134021
vt 0.199179 0.063599
vt 0.158028 0.188669
vt 0.072341 0.405548
vt 0.043904 0.267485
vt 0.147242 0.347555
vt 0.254230 0.267166
vt 0.007751 0.352965
vt 0.013476 0.183906
vt 0.110196 0.053660
vt 0.268509 0.009301
vt 0.418385 0.060352
vt 0.512522 0.192725
vt 0.512522 0.357157
vt 0.410912 0.489736
vt 0.254572 0.536406
vt 0.100349 0.485974
s 1
usemtl Large_Island
f 1/1/1 8/2/8 7/3/7
f 2/4/2 8/2/8 10/5/10
f 1/1/1 7/3/7 12/6/12
f 1/1/1 12/6/12 14/7/14
f 1/1/1 14/7/14 11/8/11
f 2/9/2 10/10/10 17/11/17
f 3/12/3 9/13/9 19/14/19
f 4/15/4 13/16/13 21/17/21
f 5/18/5 15/19/15 23/20/23
f 6/21/6 16/22/16 25/23/25
f 2/9/2 17/11/17 20/24/20
f 3/12/3 19/14/19 22/25/22
f 4/15/4 21/17/21 24/26/24
f 5/18/5 23/20/23 26/27/26
f 6/21/6 25/23/25 18/28/18
f 25/29/25 26/30/26 31/31/31 36/32/36
f 23/33/23 24/34/24 30/35/30 35/36/35
f 18/37/18 25/29/25 36/32/36 27/38/27
f 21/39/21 22/40/22 29/41/29 34/42/34
f 26/30/26 23/33/23 35/36/35 31/31/31
f 24/34/24 21/39/21 34/42/34 30/35/30
f 25/23/25 16/22/16 26/27/26
f 16/22/16 5/18/5 26/27/26
f 19/43/19 20/44/20 28/45/28 33/46/33
f 23/20/23 15/19/15 24/26/24
f 15/19/15 4/15/4 24/26/24
f 22/40/22 19/43/19 33/46/33 29/41/29
f 21/17/21 13/16/13 22/25/22
f 13/16/13 3/12/3 22/25/22
f 17/47/17 18/37/18 27/38/27 32/48/32
f 19/14/19 9/13/9 20/24/20
f 9/13/9 2/9/2 20/24/20
f 20/44/20 17/47/17 32/48/32 28/45/28
f 17/11/17 10/10/10 18/28/18
f 10/10/10 6/21/6 18/28/18
f 11/8/11 16/49/16 6/50/6
f 11/8/11 14/7/14 16/49/16
f 14/7/14 5/51/5 16/49/16
f 14/7/14 15/52/15 5/51/5
f 14/7/14 12/6/12 15/52/15
f 12/6/12 4/53/4 15/52/15
f 12/6/12 13/54/13 4/53/4
f 12/6/12 7/3/7 13/54/13
f 7/3/7 3/55/3 13/54/13
f 10/5/10 11/8/11 6/50/6
f 10/5/10 8/2/8 11/8/11
f 8/2/8 1/1/1 11/8/11
f 7/3/7 9/56/9 3/55/3
f 7/3/7 8/2/8 9/56/9
f 8/2/8 2/4/2 9/56/9
f 36/32/36 31/31/31 45/57/45 62/58/62
f 27/38/27 36/32/36 62/58/62 37/59/37
f 33/46/33 28/45/28 39/60/39 59/61/59
f 31/31/31 35/36/35 61/62/61 45/57/45
f 30/35/30 34/42/34 60/63/60 43/64/43
f 34/42/34 29/41/29 41/65/41 60/63/60
f 29/41/29 33/46/33 59/61/59 41/65/41
f 28/45/28 32/48/32 58/66/58 39/60/39
f 35/36/35 30/35/30 43/64/43 61/62/61
f 32/48/32 27/38/27 37/59/37 58/66/58
f 40/67/40 47/68/47 52/69/52
f 42/70/42 48/71/48 55/72/55
f 44/73/44 49/74/49 56/75/56
f 46/76/46 50/77/50 57/78/57
f 38/79/38 51/80/51 53/81/53
f 53/81/53 57/78/57 54/82/54
f 53/81/53 51/80/51 57/78/57
f 51/80/51 46/76/46 57/78/57
f 57/78/57 56/75/56 54/82/54
f 57/78/57 50/77/50 56/75/56
f 50/77/50 44/73/44 56/75/56
f 56/75/56 55/72/55 54/82/54
f 56/75/56 49/74/49 55/72/55
f 49/74/49 42/70/42 55/72/55
f 55/72/55 52/69/52 54/82/54
f 55/72/55 48/71/48 52/69/52
f 48/71/48 40/67/40 52/69/52
f 52/69/52 53/81/53 54/82/54
f 52/69/52 47/68/47 53/81/53
f 47/68/47 38/79/38 53/81/53
f 37/83/37 51/80/51 38/79/38
f 37/83/37 62/84/62 51/80/51
f 62/84/62 46/76/46 51/80/51
f 45/85/45 50/77/50 46/76/46
f 45/85/45 61/86/61 50/77/50
f 61/86/61 44/73/44 50/77/50
f 43/87/43 49/74/49 44/73/44
f 43/87/43 60/88/60 49/74/49
f 60/88/60 42/70/42 49/74/49
f 41/89/41 48/71/48 42/70/42
f 41/89/41 59/90/59 48/71/48
f 59/90/59 40/67/40 48/71/48
f 39/91/39 47/68/47 40/67/40
f 39/91/39 58/92/58 47/68/47
f 58/92/58 38/79/38 47/68/47
f 62/84/62 45/85/45 46/76/46
f 61/86/61 43/87/43 44/73/44
f 60/88/60 41/89/41 42/70/42
f 59/90/59 39/91/39 40/67/40
f 58/92/58 37/83/37 38/79/38
