# Blender 4.3.2
# www.blender.org
mtllib Small Island.mtl
o Small_Island
v 10.165689 -0.598706 0.200408
v 11.294243 -0.241691 0.861940
v 9.591665 -0.057768 1.474970
v 8.609197 -0.164865 0.120365
v 9.622881 -0.240856 -1.302634
v 11.294096 -0.234003 -0.772891
v 10.022865 -0.458134 0.539682
v 10.444480 -0.500029 0.390788
v 10.489933 -0.192845 1.364606
v 11.494328 -0.371372 0.046856
v 10.470818 -0.546257 -0.047685
v 9.786514 -0.507453 0.191050
v 8.926496 -0.261100 0.928244
v 10.069410 -0.530082 -0.169240
v 8.961697 -0.318783 -0.680863
v 10.521685 -0.356676 -1.236866
v 12.391981 0.085946 0.853807
v 12.405035 0.176219 -0.660801
v 9.957391 0.281654 2.653700
v 11.374649 0.352282 2.021723
v 7.636000 0.123697 0.878424
v 8.479450 0.166624 2.210357
v 8.501505 -0.029004 -1.985416
v 7.601920 0.080398 -0.714946
v 11.516355 0.091395 -1.828238
v 10.011510 0.060149 -2.509133
v 12.841502 0.353022 -0.778660
v 11.626085 0.440132 2.444190
v 8.163791 0.306498 2.633298
v 7.100206 0.247831 -0.893228
v 10.002599 0.216989 -3.021796
v 12.843691 0.261262 1.019093
v 9.948433 0.393173 3.189215
v 7.176649 0.271568 1.029575
v 8.185088 0.183398 -2.459149
v 11.777727 0.257562 -2.166601
v 13.017898 0.497703 -0.840174
v 12.800121 0.720198 0.091586
v 11.732639 0.578295 2.589694
v 10.778369 0.981123 2.731802
v 8.051124 0.438022 2.782739
v 7.715096 0.716393 1.810258
v 6.913205 0.384463 -0.954583
v 7.702504 0.592572 -1.582497
v 10.000644 0.352308 -3.210892
v 10.885515 0.647535 -2.570120
v 12.126824 0.810351 1.616814
v 9.128260 0.837800 2.733272
v 7.317706 0.726542 0.066405
v 9.150418 0.633429 -2.564670
v 12.217087 0.777385 -1.415894
v 10.516902 1.295051 1.522892
v 11.664222 0.952619 -0.001759
v 10.130740 1.131196 0.022546
v 8.697693 1.048788 1.046846
v 8.726458 0.848072 -0.826787
v 10.568340 0.968191 -1.517594
v 13.019306 0.405341 1.071908
v 9.948564 0.521383 3.376817
v 6.997993 0.406901 1.084092
v 8.070829 0.315074 -2.609659
v 11.883377 0.395057 -2.310324
vn -0.0245 -0.9938 0.1085
vn 0.2197 -0.9238 0.3136
vn -0.0427 -0.9439 0.3275
vn -0.2782 -0.9601 0.0294
vn -0.0786 -0.9703 -0.2287
vn 0.2903 -0.9347 -0.2053
vn -0.0666 -0.9478 0.3118
vn 0.1272 -0.9629 0.2381
vn 0.0751 -0.9281 0.3646
vn 0.2997 -0.9539 -0.0179
vn 0.1334 -0.9890 -0.0643
vn -0.1993 -0.9775 0.0684
vn -0.1752 -0.9674 0.1829
vn -0.0878 -0.9848 -0.1497
vn -0.1990 -0.9767 -0.0803
vn 0.0923 -0.9646 -0.2469
vn 0.2978 -0.9426 0.1510
vn 0.3743 -0.9174 -0.1351
vn 0.0498 -0.9642 0.2606
vn 0.1717 -0.9339 0.3136
vn -0.2754 -0.9566 0.0954
vn -0.1177 -0.9653 0.2330
vn -0.1714 -0.9604 -0.2198
vn -0.2968 -0.9538 -0.0458
vn 0.2602 -0.9298 -0.2603
vn 0.0393 -0.9491 -0.3125
vn 0.4970 -0.8519 -0.1654
vn 0.2607 -0.8816 0.3934
vn -0.2524 -0.8961 0.3652
vn -0.4615 -0.8799 -0.1128
vn 0.0570 -0.8750 -0.4808
vn 0.4366 -0.8809 0.1830
vn 0.0593 -0.8969 0.4383
vn -0.4403 -0.8855 0.1487
vn -0.2788 -0.8845 -0.3740
vn 0.3427 -0.8638 -0.3692
vn 0.9451 0.0763 -0.3178
vn 0.5079 0.8612 0.0176
vn 0.6310 0.0257 0.7753
vn 0.2004 0.8302 0.5203
vn -0.6070 0.0026 0.7947
vn -0.4639 0.8422 0.2747
vn -0.9541 0.0572 -0.2940
vn -0.3347 0.9038 -0.2666
vn 0.0477 0.0465 -0.9978
vn 0.1987 0.8294 -0.5222
vn 0.4255 0.8745 0.2329
vn -0.1965 0.8824 0.4275
vn -0.4267 0.9040 -0.0261
vn -0.1457 0.9092 -0.3901
vn 0.3680 0.8792 -0.3026
vn 0.0577 0.9953 0.0777
vn 0.1758 0.9834 -0.0454
vn -0.0232 0.9939 -0.1080
vn -0.1811 0.9830 0.0300
vn -0.1364 0.9823 -0.1287
vn 0.0221 0.9839 -0.1774
vn 0.9389 -0.0184 0.3437
vn 0.0203 -0.0097 0.9997
vn -0.9599 0.0092 0.2801
vn -0.5936 0.0319 -0.8042
vn 0.6277 -0.0183 -0.7782
vt 0.264093 0.759908
vt 0.309356 0.752197
vt 0.284381 0.807188
vt 0.438742 0.716716
vt 0.376357 0.619128
vt 0.228286 0.796174
vt 0.219948 0.735199
vt 0.269415 0.708442
vt 0.620017 0.669399
vt 0.597681 0.742642
vt 0.514964 0.659750
vt 0.778411 0.620805
vt 0.694391 0.616233
vt 0.752455 0.512986
vt 0.878787 0.775396
vt 0.842866 0.669855
vt 0.965027 0.688293
vt 0.755240 0.903075
vt 0.851870 0.844706
vt 0.856983 0.947395
vt 0.607582 0.818914
vt 0.677634 0.883688
vt 0.576798 0.917651
vt 0.614669 0.550393
vt 0.885990 0.559783
vt 0.956903 0.838596
vt 0.714066 0.988538
vt 0.503853 0.802666
vt 0.949397 0.263784
vt 0.924545 0.137414
vt 0.958367 0.112885
vt 0.985247 0.265429
vt 0.822963 0.065619
vt 0.701541 0.066005
vt 0.689052 0.024154
vt 0.839577 0.021238
vt 0.917067 0.373576
vt 0.946610 0.397668
vt 0.602123 0.140283
vt 0.556013 0.254051
vt 0.513524 0.253597
vt 0.570056 0.117125
vt 0.594362 0.368273
vt 0.698293 0.430225
vt 0.682424 0.466006
vt 0.559345 0.392613
vt 0.820441 0.440818
vt 0.830091 0.479329
vt 0.159215 0.590697
vt 0.278135 0.556498
vt 0.065557 0.671210
vt 0.065557 0.794984
vt 0.108101 0.907899
vt 0.218603 0.950910
vt 0.338623 0.944517
vt 0.411254 0.843402
vt 0.973502 0.102521
vt 0.998293 0.262992
vt 0.961695 0.408396
vt 0.676455 0.482803
vt 0.545159 0.403392
vt 0.844907 0.003886
vt 0.555513 0.106269
vt 0.683011 0.006386
vt 0.495501 0.253524
vt 0.835403 0.496998
vt 0.300517 0.456740
vt 0.175433 0.444068
vt 0.271727 0.373744
vt 0.455257 0.289584
vt 0.403348 0.399584
vt 0.364924 0.279711
vt 0.329889 0.079782
vt 0.414270 0.167943
vt 0.294890 0.165241
vt 0.097785 0.138853
vt 0.203881 0.074237
vt 0.157444 0.193171
vt 0.077498 0.373533
vt 0.059304 0.259137
vt 0.144954 0.325921
vt 0.240165 0.270052
vt 0.023687 0.325238
vt 0.037141 0.187160
vt 0.124160 0.060636
vt 0.269100 0.024521
vt 0.405004 0.084674
vt 0.480233 0.215696
vt 0.480233 0.363653
vt 0.381926 0.478367
vt 0.235527 0.497157
vt 0.093038 0.449332
s 1
usemtl Small_Island
f 1/1/1 8/2/8 7/3/7
f 2/4/2 8/2/8 10/5/10
f 1/1/1 7/3/7 12/6/12
f 1/1/1 12/6/12 14/7/14
f 1/1/1 14/7/14 11/8/11
f 2/9/2 10/10/10 17/11/17
f 3/12/3 9/13/9 19/14/19
f 4/15/4 13/16/13 21/17/21
f 5/18/5 15/19/15 23/20/23
f 6/21/6 16/22/16 25/23/25
f 2/9/2 17/11/17 20/24/20
f 3/12/3 19/14/19 22/25/22
f 4/15/4 21/17/21 24/26/24
f 5/18/5 23/20/23 26/27/26
f 6/21/6 25/23/25 18/28/18
f 25/29/25 26/30/26 31/31/31 36/32/36
f 23/33/23 24/34/24 30/35/30 35/36/35
f 18/37/18 25/29/25 36/32/36 27/38/27
f 21/39/21 22/40/22 29/41/29 34/42/34
f 26/30/26 23/33/23 35/36/35 31/31/31
f 24/34/24 21/39/21 34/42/34 30/35/30
f 25/23/25 16/22/16 26/27/26
f 16/22/16 5/18/5 26/27/26
f 19/43/19 20/44/20 28/45/28 33/46/33
f 23/20/23 15/19/15 24/26/24
f 15/19/15 4/15/4 24/26/24
f 22/40/22 19/43/19 33/46/33 29/41/29
f 21/17/21 13/16/13 22/25/22
f 13/16/13 3/12/3 22/25/22
f 17/47/17 18/37/18 27/38/27 32/48/32
f 19/14/19 9/13/9 20/24/20
f 9/13/9 2/9/2 20/24/20
f 20/44/20 17/47/17 32/48/32 28/45/28
f 17/11/17 10/10/10 18/28/18
f 10/10/10 6/21/6 18/28/18
f 11/8/11 16/49/16 6/50/6
f 11/8/11 14/7/14 16/49/16
f 14/7/14 5/51/5 16/49/16
f 14/7/14 15/52/15 5/51/5
f 14/7/14 12/6/12 15/52/15
f 12/6/12 4/53/4 15/52/15
f 12/6/12 13/54/13 4/53/4
f 12/6/12 7/3/7 13/54/13
f 7/3/7 3/55/3 13/54/13
f 10/5/10 11/8/11 6/50/6
f 10/5/10 8/2/8 11/8/11
f 8/2/8 1/1/1 11/8/11
f 7/3/7 9/56/9 3/55/3
f 7/3/7 8/2/8 9/56/9
f 8/2/8 2/4/2 9/56/9
f 36/32/36 31/31/31 45/57/45 62/58/62
f 27/38/27 36/32/36 62/58/62 37/59/37
f 33/46/33 28/45/28 39/60/39 59/61/59
f 31/31/31 35/36/35 61/62/61 45/57/45
f 30/35/30 34/42/34 60/63/60 43/64/43
f 34/42/34 29/41/29 41/65/41 60/63/60
f 29/41/29 33/46/33 59/61/59 41/65/41
f 28/45/28 32/48/32 58/66/58 39/60/39
f 35/36/35 30/35/30 43/64/43 61/62/61
f 32/48/32 27/38/27 37/59/37 58/66/58
f 40/67/40 47/68/47 52/69/52
f 42/70/42 48/71/48 55/72/55
f 44/73/44 49/74/49 56/75/56
f 46/76/46 50/77/50 57/78/57
f 38/79/38 51/80/51 53/81/53
f 53/81/53 57/78/57 54/82/54
f 53/81/53 51/80/51 57/78/57
f 51/80/51 46/76/46 57/78/57
f 57/78/57 56/75/56 54/82/54
f 57/78/57 50/77/50 56/75/56
f 50/77/50 44/73/44 56/75/56
f 56/75/56 55/72/55 54/82/54
f 56/75/56 49/74/49 55/72/55
f 49/74/49 42/70/42 55/72/55
f 55/72/55 52/69/52 54/82/54
f 55/72/55 48/71/48 52/69/52
f 48/71/48 40/67/40 52/69/52
f 52/69/52 53/81/53 54/82/54
f 52/69/52 47/68/47 53/81/53
f 47/68/47 38/79/38 53/81/53
f 37/83/37 51/80/51 38/79/38
f 37/83/37 62/84/62 51/80/51
f 62/84/62 46/76/46 51/80/51
f 45/85/45 50/77/50 46/76/46
f 45/85/45 61/86/61 50/77/50
f 61/86/61 44/73/44 50/77/50
f 43/87/43 49/74/49 44/73/44
f 43/87/43 60/88/60 49/74/49
f 60/88/60 42/70/42 49/74/49
f 41/89/41 48/71/48 42/70/42
f 41/89/41 59/90/59 48/71/48
f 59/90/59 40/67/40 48/71/48
f 39/91/39 47/68/47 40/67/40
f 39/91/39 58/92/58 47/68/47
f 58/92/58 38/79/38 47/68/47
f 62/84/62 45/85/45 46/76/46
f 61/86/61 43/87/43 44/73/44
f 60/88/60 41/89/41 42/70/42
f 59/90/59 39/91/39 40/67/40
f 58/92/58 37/83/37 38/79/38
